<svg width="250" height="160" viewBox="0 0 250 160" fill="none" xmlns="http://www.w3.org/2000/svg">
<g clip-path="url(#clip0_110_387)">
<rect width="250" height="160" fill="white"/>
<path d="M203.23 9.48195C195.292 26.5093 196.793 37.1846 207.733 41.5079C224.143 47.9929 263.162 50.5868 279.472 64.6544C295.782 78.7217 345.512 67.8466 354.017 43.7026C362.522 19.5586 377.835 -17.6552 297.087 -17.6552C243.254 -17.6552 211.969 -8.60963 203.23 9.48195Z" fill="#FFFA72"/>
<path d="M71.0445 43.1011C48.8178 90.7776 53.0211 120.668 83.6522 132.774C129.6 150.932 238.854 158.195 284.522 197.584C330.189 236.972 469.433 206.522 493.247 138.919C517.061 71.3158 559.938 -32.8828 333.843 -32.8828C183.112 -32.8828 95.5132 -7.55536 71.0445 43.1011Z" fill="#D6F2FF"/>
<path d="M82.0601 40.2996C61.024 85.4219 65.0022 113.712 93.9923 125.168C137.479 142.353 240.88 149.227 284.102 186.506C327.322 223.785 459.106 194.966 481.645 130.984C504.183 67.0028 544.763 -31.6138 330.78 -31.6138C188.124 -31.6138 105.218 -7.64315 82.0601 40.2996Z" fill="#C7E1F3"/>
<path d="M93.0755 37.4979C73.2302 80.0662 76.9832 106.754 104.332 117.563C145.357 133.775 242.906 140.26 283.681 175.429C324.455 210.597 448.78 183.41 470.042 123.05C491.305 62.6896 529.588 -30.3448 327.717 -30.3448C193.135 -30.3448 114.923 -7.73105 93.0755 37.4979Z" fill="#B8CFE6"/>
<path d="M104.091 34.6964C85.4364 74.7106 88.9642 99.7976 114.672 109.957C153.236 125.197 244.931 131.293 283.26 164.352C321.587 197.41 438.453 171.853 458.44 115.115C478.426 58.3766 514.412 -29.0758 324.654 -29.0758C198.147 -29.0758 124.627 -7.81884 104.091 34.6964Z" fill="#A9BEDA"/>
<path d="M115.106 31.8947C97.6426 69.3548 100.945 92.8405 125.012 102.352C161.114 116.619 246.957 122.325 282.839 153.274C318.72 184.222 428.126 160.297 446.837 107.18C465.548 54.0635 499.237 -27.8069 321.591 -27.8069C203.159 -27.8069 134.332 -7.90675 115.106 31.8947Z" fill="#9AADCE"/>
<path d="M126.122 29.0931C109.849 63.9991 112.926 85.8835 135.353 94.7463C168.993 108.04 248.983 113.358 282.418 142.197C315.853 171.035 417.799 148.741 435.234 99.2455C452.67 49.7503 484.062 -26.538 318.528 -26.538C208.171 -26.538 144.036 -7.99465 126.122 29.0931Z" fill="#8B9BC1"/>
<path d="M137.137 26.2916C122.055 58.6435 124.907 78.9266 145.693 87.1408C176.871 99.4623 251.008 104.391 281.997 131.119C312.986 157.847 407.473 137.184 423.632 91.3109C439.792 45.4373 468.887 -25.2689 315.465 -25.2689C213.183 -25.2689 153.741 -8.08244 137.137 26.2916Z" fill="#7D8AB5"/>
<path d="M148.153 23.4899C134.261 53.2877 136.888 71.9695 156.033 79.5353C184.75 90.884 253.034 95.4234 281.577 120.042C310.118 144.659 397.146 125.628 412.029 83.3761C426.913 41.1241 453.711 -24 312.402 -24C218.195 -24 163.446 -8.17034 148.153 23.4899Z" fill="#6E79A9"/>
<path d="M159.168 20.6883C146.467 47.932 148.869 65.0125 166.373 71.9298C192.629 82.3057 255.06 86.456 281.156 108.964C307.251 131.472 386.819 114.072 400.427 75.4414C414.035 36.811 438.536 -22.7311 309.339 -22.7311C223.207 -22.7311 173.15 -8.25825 159.168 20.6883Z" fill="#5F679C"/>
<path d="M170.184 17.8868C158.674 42.5764 160.85 58.0556 176.713 64.3244C200.507 73.7276 257.085 77.4888 280.735 97.8868C304.384 118.284 376.492 102.516 388.824 67.5068C401.157 32.498 423.361 -21.462 306.276 -21.462C228.219 -21.462 182.855 -8.34604 170.184 17.8868Z" fill="#505690"/>
<path d="M181.199 15.0851C170.88 37.2206 172.831 51.0985 187.053 56.7188C208.386 65.1493 259.111 68.5214 280.314 86.8093C301.516 105.097 366.165 90.9592 377.222 59.572C388.278 28.1848 408.186 -20.1931 303.213 -20.1931C233.23 -20.1931 192.56 -8.43394 181.199 15.0851Z" fill="#414584"/>
<path d="M192.215 12.2836C183.086 31.865 184.812 44.1416 197.393 49.1134C216.264 56.5711 261.137 59.5542 279.893 75.7319C298.649 91.9093 355.839 79.403 365.619 51.6374C375.4 23.8718 393.01 -18.9241 300.15 -18.9241C238.242 -18.9241 202.264 -8.52173 192.215 12.2836Z" fill="#323377"/>
</g>
<defs>
<clipPath id="clip0_110_387">
<rect width="250" height="160" fill="white"/>
</clipPath>
</defs>
</svg>
